<svg width="338" height="161" viewBox="0 0 338 161" fill="none" xmlns="http://www.w3.org/2000/svg">
<path d="M69.504 68.504V124.696C69.504 126.659 67.7973 127.64 64.384 127.64C60.9707 127.64 59.264 126.659 59.264 124.696V67.224C59.264 63.9813 57.7707 61.5067 54.784 59.8C51.7973 58.0933 47.4453 57.24 41.728 57.24C30.1227 57.24 24.32 60.568 24.32 67.224V124.696C24.32 126.659 22.6133 127.64 19.2 127.64C15.7867 127.64 14.08 126.659 14.08 124.696V68.504C14.08 61.9333 16.4267 56.9413 21.12 53.528C25.8987 50.0293 32.768 48.28 41.728 48.28C50.688 48.28 57.5573 50.0293 62.336 53.528C67.1147 56.9413 69.504 61.9333 69.504 68.504Z" fill="#014131"/>
<path d="M117.36 110V75.68H125.136L149.424 100.352V75.68H157.104V110H149.328L125.04 85.28V110H117.36ZM163.813 110V75.68H201.445V81.92H171.493V89.504H198.661V95.744H171.493V103.76H201.445V110H163.813ZM203.824 110L216.688 92.864L203.824 75.68H213.184L223.504 89.744H227.92L238.24 75.68H247.6L234.736 92.864L247.6 110H238.192L227.92 95.984H223.504L213.232 110H203.824ZM265.295 110.24C261.807 110.24 259.055 109.792 257.039 108.896C255.023 107.968 253.583 106.576 252.719 104.72C251.855 102.864 251.423 100.528 251.423 97.712V75.68H259.103V97.712C259.103 100.144 259.663 101.808 260.783 102.704C261.935 103.568 263.871 104 266.591 104H275.855C278.575 104 280.495 103.568 281.615 102.704C282.767 101.808 283.343 100.144 283.343 97.712V75.68H291.023V97.712C291.023 100.528 290.591 102.864 289.727 104.72C288.863 106.576 287.423 107.968 285.407 108.896C283.391 109.792 280.639 110.24 277.151 110.24H265.295ZM296.631 110.24V104L324.231 104.048C325.639 104.048 326.711 103.728 327.447 103.088C328.215 102.416 328.599 101.344 328.599 99.872C328.599 98.4 328.215 97.344 327.447 96.704C326.711 96.032 325.639 95.696 324.231 95.696H307.047C303.495 95.696 300.727 94.848 298.743 93.152C296.791 91.424 295.815 88.896 295.815 85.568C295.815 82.24 296.791 79.728 298.743 78.032C300.727 76.304 303.495 75.44 307.047 75.44H334.023V81.68L307.863 81.632C306.487 81.632 305.415 81.952 304.647 82.592C303.879 83.2 303.495 84.192 303.495 85.568C303.495 86.944 303.879 87.952 304.647 88.592C305.415 89.2 306.487 89.504 307.863 89.504H325.047C328.599 89.504 331.351 90.384 333.303 92.144C335.287 93.872 336.279 96.448 336.279 99.872C336.279 103.264 335.287 105.84 333.303 107.6C331.351 109.36 328.599 110.24 325.047 110.24H296.631Z" fill="#014131"/>
</svg>
