<svg width="22" height="31" viewBox="0 0 22 31" fill="none" xmlns="http://www.w3.org/2000/svg">
<mask id="path-1-outside-1_290_44520" maskUnits="userSpaceOnUse" x="-0.780273" y="-0.980469" width="23" height="32" fill="black">
<rect fill="white" x="-0.780273" y="-0.980469" width="23" height="32"/>
<path d="M21.2837 8.08353V29.1555C21.2837 29.8915 20.6437 30.2595 19.3637 30.2595C18.0837 30.2595 17.4437 29.8915 17.4437 29.1555V7.60353C17.4437 6.38753 16.8837 5.45953 15.7637 4.81953C14.6437 4.17953 13.0117 3.85953 10.8677 3.85953C6.51573 3.85953 4.33973 5.10753 4.33973 7.60353V29.1555C4.33973 29.8915 3.69973 30.2595 2.41973 30.2595C1.13973 30.2595 0.499727 29.8915 0.499727 29.1555V8.08353C0.499727 5.61953 1.37973 3.74753 3.13973 2.46753C4.93173 1.15553 7.50773 0.499531 10.8677 0.499531C14.2277 0.499531 16.8037 1.15553 18.5957 2.46753C20.3877 3.74753 21.2837 5.61953 21.2837 8.08353Z"/>
</mask>
<path d="M21.2837 8.08353V29.1555C21.2837 29.8915 20.6437 30.2595 19.3637 30.2595C18.0837 30.2595 17.4437 29.8915 17.4437 29.1555V7.60353C17.4437 6.38753 16.8837 5.45953 15.7637 4.81953C14.6437 4.17953 13.0117 3.85953 10.8677 3.85953C6.51573 3.85953 4.33973 5.10753 4.33973 7.60353V29.1555C4.33973 29.8915 3.69973 30.2595 2.41973 30.2595C1.13973 30.2595 0.499727 29.8915 0.499727 29.1555V8.08353C0.499727 5.61953 1.37973 3.74753 3.13973 2.46753C4.93173 1.15553 7.50773 0.499531 10.8677 0.499531C14.2277 0.499531 16.8037 1.15553 18.5957 2.46753C20.3877 3.74753 21.2837 5.61953 21.2837 8.08353Z" fill="#00AF55"/>
<path d="M15.7637 4.81953L16.0118 4.38541H16.0118L15.7637 4.81953ZM3.13973 2.46753L3.43381 2.8719L3.4351 2.87096L3.13973 2.46753ZM18.5957 2.46753L18.3003 2.87099L18.3051 2.8744L18.5957 2.46753ZM21.2837 8.08353H20.7837V29.1555H21.2837H21.7837V8.08353H21.2837ZM21.2837 29.1555H20.7837C20.7837 29.3439 20.72 29.4549 20.5545 29.5501C20.3474 29.6692 19.9722 29.7595 19.3637 29.7595V30.2595V30.7595C20.0353 30.7595 20.6201 30.6659 21.053 30.417C21.5275 30.1441 21.7837 29.7032 21.7837 29.1555H21.2837ZM19.3637 30.2595V29.7595C18.7553 29.7595 18.3801 29.6692 18.173 29.5501C18.0075 29.4549 17.9437 29.3439 17.9437 29.1555H17.4437H16.9437C16.9437 29.7032 17.2 30.1441 17.6745 30.417C18.1073 30.6659 18.6922 30.7595 19.3637 30.7595V30.2595ZM17.4437 29.1555H17.9437V7.60353H17.4437H16.9437V29.1555H17.4437ZM17.4437 7.60353H17.9437C17.9437 6.1951 17.276 5.10779 16.0118 4.38541L15.7637 4.81953L15.5157 5.25365C16.4915 5.81128 16.9437 6.57997 16.9437 7.60353H17.4437ZM15.7637 4.81953L16.0118 4.38541C14.7817 3.68249 13.0476 3.35953 10.8677 3.35953V3.85953V4.35953C12.9758 4.35953 14.5058 4.67657 15.5157 5.25365L15.7637 4.81953ZM10.8677 3.85953V3.35953C8.66032 3.35953 6.92368 3.67316 5.72297 4.3618C4.48054 5.07438 3.83973 6.17527 3.83973 7.60353H4.33973H4.83973C4.83973 6.53579 5.28692 5.76469 6.22048 5.22926C7.19577 4.6699 8.72313 4.35953 10.8677 4.35953V3.85953ZM4.33973 7.60353H3.83973V29.1555H4.33973H4.83973V7.60353H4.33973ZM4.33973 29.1555H3.83973C3.83973 29.3439 3.77595 29.4549 3.61049 29.5501C3.40335 29.6692 3.0282 29.7595 2.41973 29.7595V30.2595V30.7595C3.09126 30.7595 3.6761 30.6659 4.10896 30.417C4.5835 30.1441 4.83973 29.7032 4.83973 29.1555H4.33973ZM2.41973 30.2595V29.7595C1.81126 29.7595 1.4361 29.6692 1.22896 29.5501C1.0635 29.4549 0.999727 29.3439 0.999727 29.1555H0.499727H-0.000273228C-0.000273228 29.7032 0.255952 30.1441 0.730491 30.417C1.16335 30.6659 1.7482 30.7595 2.41973 30.7595V30.2595ZM0.499727 29.1555H0.999727V8.08353H0.499727H-0.000273228V29.1555H0.499727ZM0.499727 8.08353H0.999727C0.999727 5.75515 1.82169 4.04435 3.43381 2.8719L3.13973 2.46753L2.84564 2.06316C0.937764 3.45071 -0.000273228 5.48391 -0.000273228 8.08353H0.499727ZM3.13973 2.46753L3.4351 2.87096C5.10756 1.64648 7.56248 0.999531 10.8677 0.999531V0.499531V-0.000469208C7.45297 -0.000469208 4.7559 0.664579 2.84436 2.0641L3.13973 2.46753ZM10.8677 0.499531V0.999531C14.173 0.999531 16.6279 1.64648 18.3004 2.87096L18.5957 2.46753L18.8911 2.0641C16.9796 0.664579 14.2825 -0.000469208 10.8677 -0.000469208V0.499531ZM18.5957 2.46753L18.3051 2.8744C19.9486 4.04832 20.7837 5.75876 20.7837 8.08353H21.2837H21.7837C21.7837 5.4803 20.8269 3.44674 18.8863 2.06067L18.5957 2.46753Z" fill="#EDFFD3" mask="url(#path-1-outside-1_290_44520)"/>
</svg>
