<svg width="144" height="51" viewBox="0 0 144 51" fill="none" xmlns="http://www.w3.org/2000/svg">
<path d="M39.764 24.84H43.652V28.152C43.94 27.48 44.348 26.856 44.876 26.28C45.428 25.68 46.148 25.2 47.036 24.84C47.924 24.456 49.004 24.264 50.276 24.264C51.572 24.264 52.736 24.528 53.768 25.056C54.8 25.584 55.604 26.46 56.18 27.684C56.78 28.884 57.08 30.516 57.08 32.58V45H53.192V33.048C53.192 31.944 53.084 30.996 52.868 30.204C52.652 29.388 52.256 28.764 51.68 28.332C51.128 27.876 50.336 27.648 49.304 27.648C48.344 27.648 47.432 27.924 46.568 28.476C45.704 29.028 44.996 29.844 44.444 30.924C43.916 32.004 43.652 33.348 43.652 34.956V45H39.764V24.84ZM63.8542 36.216V32.94H77.0302L75.4462 34.092C75.4942 32.94 75.3142 31.896 74.9062 30.96C74.5222 30 73.9222 29.232 73.1062 28.656C72.2902 28.08 71.2582 27.792 70.0102 27.792C68.2582 27.792 66.8182 28.332 65.6902 29.412C64.5622 30.468 63.9502 31.944 63.8542 33.84H59.7502C59.9182 31.848 60.4582 30.144 61.3702 28.728C62.3062 27.288 63.5182 26.184 65.0062 25.416C66.4942 24.648 68.1622 24.264 70.0102 24.264C71.3782 24.264 72.6622 24.528 73.8622 25.056C75.0622 25.584 76.0942 26.364 76.9582 27.396C77.8462 28.428 78.4942 29.688 78.9022 31.176C79.3102 32.64 79.4182 34.32 79.2262 36.216H63.8542ZM70.0102 45.576C68.0902 45.576 66.3862 45.18 64.8982 44.388C63.4342 43.596 62.2582 42.504 61.3702 41.112C60.5062 39.696 59.9782 38.064 59.7862 36.216H63.8542C64.0222 37.92 64.6102 39.324 65.6182 40.428C66.6502 41.508 68.1142 42.048 70.0102 42.048C71.4262 42.048 72.5422 41.712 73.3582 41.04C74.1982 40.368 74.7862 39.552 75.1222 38.592H79.2262C78.9142 39.984 78.3382 41.208 77.4982 42.264C76.6822 43.296 75.6382 44.112 74.3662 44.712C73.0942 45.288 71.6422 45.576 70.0102 45.576ZM79.9985 24.84H84.4985L97.3505 45H92.8505L79.9985 24.84ZM97.2425 24.84L84.3905 45H79.8905L92.7425 24.84H97.2425ZM117.125 45H113.237V24.84H117.125V45ZM113.237 34.884L113.813 38.844C113.813 39.468 113.705 40.164 113.489 40.932C113.273 41.7 112.889 42.444 112.337 43.164C111.809 43.86 111.077 44.436 110.141 44.892C109.205 45.348 108.017 45.576 106.577 45.576C105.281 45.576 104.117 45.312 103.085 44.784C102.077 44.256 101.273 43.38 100.673 42.156C100.097 40.932 99.8092 39.3 99.8092 37.26V24.84H103.661V36.792C103.661 37.872 103.769 38.82 103.985 39.636C104.225 40.428 104.621 41.052 105.173 41.508C105.749 41.964 106.553 42.192 107.585 42.192C108.545 42.192 109.457 41.916 110.321 41.364C111.185 40.788 111.881 39.96 112.409 38.88C112.961 37.8 113.237 36.468 113.237 34.884ZM123.965 38.628C124.085 39.852 124.613 40.764 125.549 41.364C126.485 41.964 127.601 42.264 128.897 42.264C130.169 42.264 131.189 42.024 131.957 41.544C132.749 41.04 133.145 40.284 133.145 39.276C133.145 38.652 132.905 38.184 132.425 37.872C131.969 37.536 131.357 37.272 130.589 37.08C129.845 36.888 129.017 36.72 128.105 36.576C127.217 36.432 126.317 36.252 125.405 36.036C124.493 35.82 123.653 35.508 122.885 35.1C122.141 34.668 121.541 34.092 121.085 33.372C120.629 32.652 120.401 31.716 120.401 30.564C120.401 29.484 120.737 28.464 121.409 27.504C122.081 26.52 123.041 25.74 124.289 25.164C125.537 24.564 126.977 24.264 128.609 24.264C130.073 24.264 131.405 24.564 132.605 25.164C133.829 25.74 134.813 26.544 135.557 27.576C136.301 28.608 136.673 29.808 136.673 31.176H132.965C132.869 29.952 132.389 29.052 131.525 28.476C130.685 27.876 129.665 27.576 128.465 27.576C127.073 27.576 126.017 27.864 125.297 28.44C124.601 28.992 124.253 29.7 124.253 30.564C124.253 31.212 124.481 31.716 124.937 32.076C125.393 32.436 125.993 32.724 126.737 32.94C127.505 33.132 128.345 33.3 129.257 33.444C130.169 33.564 131.069 33.732 131.957 33.948C132.869 34.164 133.697 34.476 134.441 34.884C135.209 35.268 135.821 35.82 136.277 36.54C136.757 37.236 136.997 38.148 136.997 39.276C136.997 40.548 136.649 41.652 135.953 42.588C135.281 43.524 134.333 44.256 133.109 44.784C131.885 45.312 130.421 45.576 128.717 45.576C127.133 45.576 125.693 45.276 124.397 44.676C123.125 44.052 122.105 43.224 121.337 42.192C120.593 41.136 120.197 39.948 120.149 38.628H123.965Z" fill="#00AF55"/>
<path d="M30.064 26.064V47.136C30.064 47.872 29.424 48.24 28.144 48.24C26.864 48.24 26.224 47.872 26.224 47.136V25.584C26.224 24.368 25.664 23.44 24.544 22.8C23.424 22.16 21.792 21.84 19.648 21.84C15.296 21.84 13.12 23.088 13.12 25.584V47.136C13.12 47.872 12.48 48.24 11.2 48.24C9.92 48.24 9.28 47.872 9.28 47.136V26.064C9.28 23.6 10.16 21.728 11.92 20.448C13.712 19.136 16.288 18.48 19.648 18.48C23.008 18.48 25.584 19.136 27.376 20.448C29.168 21.728 30.064 23.6 30.064 26.064Z" fill="#00AF55"/>
</svg>
